<?xml version="1.0" encoding="utf-8"?>
<!-- Generator: Adobe Illustrator 24.0.2, SVG Export Plug-In . SVG Version: 6.00 Build 0)  -->
<svg version="1.1" id="Capa_1" xmlns="http://www.w3.org/2000/svg" xmlns:xlink="http://www.w3.org/1999/xlink" x="0px" y="0px"
	 viewBox="0 0 150 60" style="enable-background:new 0 0 150 60;" xml:space="preserve">
<style type="text/css">
	.st0{fill:#45972F;}
	.st1{fill:#6BACC5;}
</style>
<g>
	<g>
		<g>
			<path class="st0" d="M94.2,8.9h-2.3V5h-3.9v3.9H62.1V5h-3.9v3.9h-2.4c-3.3,0-5.8,2.6-5.8,5.9v34.4c0,3.3,2.7,5.8,5.8,5.8h38.3
				c3.3,0,5.8-2.7,5.8-5.8V14.8C100,11.5,97.3,8.9,94.2,8.9z M96.1,49.2c0,1.1-0.9,2-2,2H55.8c-1.1,0-1.9-0.9-1.9-2V23.4h42.2V49.2z
				 M96.1,19.5H53.9v-4.7c0-1.1,0.9-2,1.9-2h2.4v3.9h3.9v-3.9h25.8v3.9h3.9v-3.9h2.3c1.1,0,2,0.9,2,2C96.1,14.8,96.1,19.5,96.1,19.5
				z"/>
		</g>
	</g>
	<g>
		<g>
			<rect x="57.4" y="27.5" class="st1" width="3.9" height="3.9"/>
		</g>
	</g>
	<g>
		<g>
			<rect x="65.3" y="27.5" class="st1" width="3.9" height="3.9"/>
		</g>
	</g>
	<g>
		<g>
			<rect x="73.1" y="27.5" class="st1" width="3.9" height="3.9"/>
		</g>
	</g>
	<g>
		<g>
			<rect x="80.8" y="27.5" class="st1" width="3.9" height="3.9"/>
		</g>
	</g>
	<g>
		<g>
			<rect x="88.7" y="27.5" class="st1" width="3.9" height="3.9"/>
		</g>
	</g>
	<g>
		<g>
			<rect x="57.4" y="35.3" class="st1" width="3.9" height="3.9"/>
		</g>
	</g>
	<g>
		<g>
			<rect x="65.3" y="35.3" class="st1" width="3.9" height="3.9"/>
		</g>
	</g>
	<g>
		<g>
			<rect x="73.1" y="35.3" class="st1" width="3.9" height="3.9"/>
		</g>
	</g>
	<g>
		<g>
			<rect x="80.8" y="35.3" class="st1" width="3.9" height="3.9"/>
		</g>
	</g>
	<g>
		<g>
			<rect x="57.4" y="43.1" class="st1" width="3.9" height="3.9"/>
		</g>
	</g>
	<g>
		<g>
			<rect x="65.3" y="43.1" class="st1" width="3.9" height="3.9"/>
		</g>
	</g>
	<g>
		<g>
			<rect x="73.1" y="43.1" class="st1" width="3.9" height="3.9"/>
		</g>
	</g>
	<g>
		<g>
			<rect x="80.8" y="43.1" class="st1" width="3.9" height="3.9"/>
		</g>
	</g>
	<g>
		<g>
			<rect x="88.7" y="35.3" class="st1" width="3.9" height="3.9"/>
		</g>
	</g>
</g>
</svg>
