<?xml version="1.0" encoding="utf-8"?>
<!-- Generator: Adobe Illustrator 24.0.2, SVG Export Plug-In . SVG Version: 6.00 Build 0)  -->
<svg version="1.1" id="Capa_1" xmlns="http://www.w3.org/2000/svg" xmlns:xlink="http://www.w3.org/1999/xlink" x="0px" y="0px"
	 viewBox="0 0 150 60" style="enable-background:new 0 0 150 60;" xml:space="preserve">
<style type="text/css">
	.st0{fill:#45972F;}
	.st1{fill:#6BACC5;}
</style>
<g>
	<g>
		<g>
			<path class="st0" d="M75,5c-9.7,0-17.6,7.9-17.6,17.6c0,3.2,0.9,6.4,2.6,9.2L74,54.3c0.2,0.4,0.7,0.7,1.2,0.7l0,0
				c0.5,0,1-0.2,1.2-0.7l13.6-22.7c1.6-2.7,2.5-5.8,2.5-9C92.6,12.9,84.7,5,75,5z M87.6,30.1L75.3,50.7L62.6,30.3
				c-1.4-2.3-2.2-4.9-2.2-7.7c0-8.1,6.5-14.7,14.6-14.7s14.6,6.6,14.6,14.6C89.7,25.2,89,27.8,87.6,30.1z"/>
		</g>
	</g>
	<path class="st1" d="M75,13.7c-4.9,0-8.8,3.9-8.8,8.8s3.9,8.8,8.8,8.8s8.8-3.9,8.8-8.8S79.9,13.7,75,13.7z M75.3,16.3l3.1-1.2
		c0.3,0.1,0.7,0.3,1,0.5l0,0c0.3,0.2,0.6,0.4,0.9,0.6l0,0c0.1,0.1,0.2,0.2,0.4,0.3l0,0c0.1,0.1,0.2,0.2,0.3,0.4c0,0,0,0,0,0
		c0.1,0.1,0.2,0.2,0.3,0.3c0,0,0,0,0,0.1c0.1,0.1,0.2,0.3,0.3,0.4l-0.6,2.6l-3,1l-2.9-2.3V16.3z M68.5,17.5
		C68.5,17.5,68.5,17.5,68.5,17.5c0.1-0.2,0.2-0.3,0.3-0.4c0,0,0,0,0,0c0.1-0.1,0.2-0.2,0.3-0.4l0,0c0.1-0.1,0.2-0.2,0.3-0.3h0
		c0.3-0.2,0.6-0.4,0.9-0.6l0,0c0.3-0.2,0.6-0.4,1-0.5l3.1,1.2v3l-2.9,2.3l-3-1L68.2,18C68.3,17.8,68.4,17.7,68.5,17.5z M68.1,27.1
		c-0.1-0.1-0.1-0.2-0.2-0.4v0c-0.1-0.1-0.1-0.3-0.2-0.4l0,0c-0.1-0.3-0.3-0.6-0.4-0.9l0,0c0-0.1-0.1-0.3-0.1-0.4v0
		c0-0.1-0.1-0.3-0.1-0.4v0c0-0.3-0.1-0.6-0.1-1l1.8-2.1l3,1l0.8,3.5L71,27.5L68.1,27.1z M77,30.6c-0.1,0-0.3,0-0.4,0.1h0
		c-0.1,0-0.2,0-0.4,0c0,0,0,0-0.1,0c-0.1,0-0.2,0-0.3,0c0,0-0.1,0-0.1,0c-0.1,0-0.3,0-0.4,0c-0.1,0-0.3,0-0.4,0h0
		c-0.1,0-0.2,0-0.4,0l0,0c-0.3,0-0.5,0-0.8-0.1l-1.7-2.7l1.4-1.9h4.1l1.4,1.9L77,30.6z M83.1,24.3C83.1,24.3,83.1,24.4,83.1,24.3
		c0,0.2-0.1,0.3-0.1,0.4v0c0,0.1-0.1,0.3-0.1,0.4l0,0c-0.1,0.3-0.2,0.6-0.4,0.9l0,0c0,0.1-0.1,0.3-0.2,0.4v0
		c-0.1,0.1-0.1,0.2-0.2,0.4L79,27.5l-1.4-1.9l0.8-3.5l3-1l1.8,2.1C83.2,23.7,83.2,24,83.1,24.3z"/>
</g>
</svg>
