<?xml version="1.0" encoding="utf-8"?>
<!-- Generator: Adobe Illustrator 24.0.2, SVG Export Plug-In . SVG Version: 6.00 Build 0)  -->
<svg version="1.1" id="Capa_1" xmlns="http://www.w3.org/2000/svg" xmlns:xlink="http://www.w3.org/1999/xlink" x="0px" y="0px"
	 viewBox="0 0 150 60" style="enable-background:new 0 0 150 60;" xml:space="preserve">
<style type="text/css">
	.st0{fill:#45972F;}
	.st1{fill:#6BACC5;}
</style>
<g>
	<path class="st0" d="M101.8,5H48.1c-3.5,0-6.4,2.9-6.4,6.4v37.1c0,3.5,2.9,6.4,6.4,6.4h53.8c3.5,0,6.4-2.9,6.4-6.4V11.4
		C108.3,7.9,105.4,5,101.8,5z M46,23.5h5.7c1.2,0,2.1,0.9,2.1,2.1v8.5c0,1.2-0.9,2.1-2.1,2.1H46V23.5z M104,36.4h-5.7
		c-1.2,0-2.1-0.9-2.1-2.1v-8.6c0-1.2,0.9-2.1,2.1-2.1h5.7V36.4z M77,19.5V9.3h24.8c1.2,0,2.1,0.9,2.1,2.1v7.8l0,0h-5.7
		c-3.5,0-6.4,2.9-6.4,6.4v8.5c0,3.5,2.9,6.4,6.4,6.4h5.7v7.8c0,1.2-0.9,2.1-2.1,2.1H77V40.5c0,0-4.3,0-4.3,0v10.2l0,0H48.1
		c-1.2,0-2.1-0.9-2.1-2.1v-7.8h5.7c3.5,0,6.4-2.9,6.4-6.4v-8.5c0-3.5-2.9-6.4-6.4-6.4H46v-7.8c0-1.2,0.9-2.1,2.1-2.1h24.7v10.2
		C72.8,19.5,77,19.6,77,19.5z"/>
	<path class="st1" d="M74.9,19.2c-5.9,0-10.7,4.8-10.7,10.7c0,5.9,4.8,10.7,10.7,10.7c5.9,0,10.7-4.8,10.7-10.7S80.9,19.2,74.9,19.2
		z M73.6,33.6l-4.1-4l0.5-0.5l3.6,3.5l6.2-5.9l0.5,0.5L73.6,33.6z"/>
</g>
</svg>
