<?xml version="1.0" encoding="utf-8"?>
<!-- Generator: Adobe Illustrator 24.0.2, SVG Export Plug-In . SVG Version: 6.00 Build 0)  -->
<svg version="1.1" id="Layer_1" xmlns="http://www.w3.org/2000/svg" xmlns:xlink="http://www.w3.org/1999/xlink" x="0px" y="0px"
	 viewBox="0 0 150 60" style="enable-background:new 0 0 150 60;" xml:space="preserve">
<style type="text/css">
	.st0{fill:#45972F;}
</style>
<path class="st0" d="M101.2,5H48.8c-4,0-7.2,3.3-7.2,7.2v35.6c0,4,3.3,7.2,7.2,7.2h52.3c4,0,7.2-3.3,7.2-7.2V12.2
	C108.4,8.3,105.2,5,101.2,5z M104.5,38.6h-3.3c-1.8,0-3.3-1.5-3.3-3.3V24.8c0-1.8,1.4-3.3,3.3-3.3h3.3V38.6z M73.1,38.3
	c-3.8-0.9-6.5-4.3-6.5-8.3s2.8-7.4,6.5-8.3V38.3z M77,21.8c3.8,0.9,6.6,4.2,6.6,8.3s-2.8,7.4-6.6,8.3V21.8z M45.6,21.5h3.3
	c1.8,0,3.3,1.5,3.3,3.3v10.5c0,1.8-1.5,3.3-3.3,3.3h-3.3V21.5z M45.6,47.8v-5.4h3.3c4,0,7.2-3.3,7.2-7.2V24.8c0-4-3.3-7.2-7.2-7.2
	h-3.3v-5.4c0-1.8,1.5-3.3,3.3-3.3h24.3v8.8c-6,1-10.5,6.1-10.5,12.3s4.6,11.3,10.5,12.3v8.8H48.8C47,51.1,45.6,49.7,45.6,47.8z
	 M101.2,51.1H77v-8.8c6-1,10.5-6.1,10.5-12.3S82.9,18.7,77,17.7V8.9h24.3c1.8,0,3.3,1.5,3.3,3.3v5.4h-3.3c-3.9,0-7.2,3.3-7.2,7.2
	v10.5c0,4,3.3,7.2,7.2,7.2h3.3v5.4C104.5,49.7,103,51.1,101.2,51.1z"/>
</svg>
