<?xml version="1.0" encoding="utf-8"?>
<!-- Generator: Adobe Illustrator 23.1.0, SVG Export Plug-In . SVG Version: 6.00 Build 0)  -->
<svg version="1.1" id="Layer_1" xmlns="http://www.w3.org/2000/svg" xmlns:xlink="http://www.w3.org/1999/xlink" x="0px" y="0px"
	 viewBox="0 0 113.4 85" style="enable-background:new 0 0 113.4 85;" xml:space="preserve">
<g>
	<path d="M28,41.7c0-8.3,0-16.5,0-24.8c0-1.8,0.9-2.8,2.8-2.8c6.4,0,12.9,0,19.2,0c8.7,0,17.4,0,26.2,0c2.2,0,4.3,0,6.4,0
		c1.9,0,2.8,0.9,2.8,2.8c0,6.4,0,12.9,0,19.3c0,10.1,0,20.1,0,30.3c0,1.7-0.9,2.7-2.6,2.7c-13.5,0-26.9,0-40.4,0
		c-3.9,0-7.8,0-11.6,0c-1.9,0-2.8-0.9-2.8-2.8C28,58.3,28,50,28,41.7z M83,66.9c0-13.7,0-27.2,0-40.9c-17.6,0-35,0-52.6,0
		c0,13.6,0,27.2,0,40.9C48,66.9,65.5,66.9,83,66.9z M78.4,18.9L78.4,18.9c-0.4,0-0.8-0.1-1.2,0c-0.7,0.1-1.1,0.6-1.1,1.2
		s0.4,1.1,1.1,1.2c0.8,0.1,1.6,0.1,2.4,0c0.7,0,1.2-0.5,1.2-1.2c0-0.6-0.4-1.1-1.1-1.2C79.2,18.9,78.8,18.9,78.4,18.9z M71.3,21.2
		L71.3,21.2c0.3,0,0.7,0,1.1,0c0.8,0,1.3-0.5,1.3-1.2s-0.4-1.2-1.2-1.2c-0.8,0-1.5-0.1-2.3,0c-0.8,0.1-1.2,0.6-1.2,1.2
		s0.5,1.1,1.2,1.2C70.6,21.2,71,21.2,71.3,21.2z"/>
	<path d="M47.9,81c0-0.8,0-1.5,0-2.3c-0.3,0-0.6,0-0.8,0c-7.5,0-15.1,0-22.6,0c-2.4,0-4.2-1.1-4.8-3.1c-0.3-0.7-0.3-1.3-0.3-2
		c0-5.9,0-11.9,0-17.8c0-7.1,0-14.1,0-21.2c0-2.5,1.3-4.4,3.6-4.9c0.9-0.2,1.8-0.2,2.8-0.3c0,0.3,0.1,0.6,0.1,0.8
		c0,7.9,0,15.8,0,23.7c0,4.3,0,8.7,0,13c0,2.6,2.1,4.7,4.7,4.7c4.6,0,9.2,0,13.8,0c12.9,0,25.7,0,38.5,0c3.1,0,5-1.9,5-5
		c0-9.1,0-18.2,0-27.3c0-3.3,0-6.4,0-9.6c4.1-0.8,6.4,1.8,6.4,4.8c0,9.9,0,20,0,29.9c0,3.1,0,6.3,0,9.4c0,3.1-1.9,5.1-5,5.1
		c-7.6,0-15.1,0-22.7,0c-0.3,0-0.5,0-0.8,0c0,0.8,0,1.5,0,2.3c0.8,0,1.8,0,2.6,0c0.9,0,1.4,0.4,1.4,1.2s-0.6,1.2-1.5,1.2
		c-7.5,0-15,0-22.4,0c-1.3,0-1.8-0.3-1.8-1.2s0.6-1.2,1.8-1.2C46.4,81,47.1,81,47.9,81z M91.8,74c-23.4,0-46.8,0-70.1,0
		c0.1,1.4,1,2.3,2.5,2.3c9.4,0,18.7,0,28.2,0c7.9,0,15.9,0,23.8,0c0.7,0,1.4,0,2.2,0c3.8,0,7.6,0,11.4,0
		C90.8,76.2,91.7,75.3,91.8,74z M50.4,80.9c4.3,0,8.5,0,12.8,0c0-0.8,0-1.5,0-2.3c-4.3,0-8.5,0-12.8,0
		C50.4,79.5,50.4,80.2,50.4,80.9z"/>
	<path d="M56.7,64.6c-9.9,0-18.1-8.2-18.1-18.2c0-9.9,8.1-18.1,18.1-18.1c10,0,18.2,8.1,18.2,18C74.9,56.3,66.8,64.5,56.7,64.6z
		 M54.5,54.6c0.6,0,0.9-0.4,1.1-1c1.5-4.5,3-9,4.5-13.6c0.3-0.8,0.1-1.4-0.7-1.7c-0.7-0.3-1.3,0.1-1.6,1c-0.8,2.3-1.5,4.5-2.3,6.7
		c-0.8,2.3-1.5,4.6-2.3,6.9C53,53.8,53.5,54.6,54.5,54.6z M66.3,47c-1.3,1.5-2.6,2.9-3.8,4.3c-0.6,0.7-0.6,1.3-0.1,1.8
		c0.5,0.4,1.2,0.4,1.8-0.2c1.5-1.7,3-3.3,4.5-5c0.5-0.6,0.5-1.2,0-1.8c-1.5-1.7-3-3.3-4.5-5c-0.2-0.3-0.5-0.4-0.8-0.4
		c-0.5-0.1-0.9,0.1-1.2,0.6c-0.3,0.5-0.2,1,0.3,1.4C63.6,44.1,65,45.5,66.3,47z M47.2,47c0.2-0.2,0.3-0.3,0.3-0.4
		c1.2-1.3,2.4-2.7,3.5-4c0.3-0.3,0.4-0.8,0.3-1.2c-0.2-1-1.3-1.2-2.1-0.3c-1.3,1.4-2.5,2.8-3.8,4.2c-1.5,1.8-1.6,1.8,0,3.5
		c1.3,1.4,2.5,2.8,3.8,4.3c0.3,0.3,0.8,0.4,1.2,0.4c0.3-0.1,0.8-0.5,0.8-0.8c0.1-0.3-0.2-0.9-0.4-1.2C49.8,49.9,48.4,48.5,47.2,47z"
		/>
</g>
</svg>
