<?xml version="1.0" encoding="utf-8"?>
<!-- Generator: Adobe Illustrator 23.1.0, SVG Export Plug-In . SVG Version: 6.00 Build 0)  -->
<svg version="1.1" id="Layer_1" xmlns="http://www.w3.org/2000/svg" xmlns:xlink="http://www.w3.org/1999/xlink" x="0px" y="0px"
	 viewBox="0 0 113.4 141.7" style="enable-background:new 0 0 113.4 141.7;" xml:space="preserve">
<style type="text/css">
	.st0{fill:#CAA87A;}
</style>
<g>
	<path class="st0" d="M29.6,49.4c0-7.8,0-15.6,0-23.4c0-1.7,0.9-2.6,2.6-2.6c6.1,0,12.1,0,18.2,0c8.2,0,16.5,0,24.7,0c2,0,4,0,6,0
		c1.8,0,2.7,0.9,2.7,2.7c0,6.1,0,12.2,0,18.2c0,9.5,0,19.1,0,28.6c0,1.6-0.9,2.5-2.5,2.5c-12.7,0-25.4,0-38.2,0c-3.7,0-7.3,0-11,0
		c-1.8,0-2.6-0.9-2.6-2.6C29.6,64.9,29.6,57.2,29.6,49.4z M81.5,73.2c0-13,0-25.8,0-38.7c-16.6,0-33.1,0-49.7,0
		c0,12.9,0,25.8,0,38.7C48.5,73.2,65,73.2,81.5,73.2z M77.2,27.8L77.2,27.8c-0.4,0-0.7-0.1-1.1,0C75.4,27.9,75,28.3,75,29
		s0.4,1.1,1.1,1.1c0.7,0.1,1.5,0.1,2.2,0c0.6,0,1.1-0.5,1.1-1.1c0-0.6-0.4-1.1-1.1-1.1C78,27.8,77.6,27.8,77.2,27.8z M70.5,30
		L70.5,30c0.3,0,0.7,0,1,0c0.7-0.1,1.2-0.5,1.2-1.1c0-0.6-0.4-1.1-1.1-1.1c-0.7,0-1.4-0.1-2.1,0c-0.7,0.1-1.1,0.5-1.1,1.1
		c0,0.6,0.4,1.1,1.1,1.1C69.8,30.1,70.2,30,70.5,30z"/>
	<path class="st0" d="M48.4,86.5c0-0.7,0-1.4,0-2.2c-0.2,0-0.5,0-0.8,0c-7.2,0-14.3,0-21.4,0c-2.3,0-3.9-1.1-4.5-2.9
		c-0.2-0.6-0.3-1.2-0.3-1.9c0-5.6,0-11.2,0-16.8c0-6.7,0-13.4,0-20.1c0-2.4,1.2-4.2,3.4-4.7c0.9-0.2,1.7-0.1,2.7-0.2
		c0,0.3,0.1,0.6,0.1,0.7c0,7.5,0,14.9,0,22.4c0,4.1,0,8.2,0,12.3c0,2.5,1.9,4.4,4.4,4.4c4.4,0,8.7-0.1,13-0.1
		c12.1,0,24.3,0,36.4,0.1c2.9,0,4.7-1.8,4.7-4.7c0-8.6,0-17.2,0-25.8c0-3.1,0-6.1,0-9.2c3.9-0.7,6.1,1.7,6.1,4.5
		c-0.1,9.4,0,18.9,0,28.3c0,2.9,0,5.9,0,8.8c0,2.9-1.8,4.8-4.8,4.8c-7.2,0-14.3,0-21.5,0c-0.2,0-0.5,0-0.7,0c0,0.7,0,1.4,0,2.2
		c0.8,0,1.6,0,2.4,0c0.9,0,1.4,0.4,1.4,1.1c0,0.7-0.5,1.1-1.4,1.1c-7.1,0-14.1,0-21.2,0c-1.2,0-1.7-0.3-1.7-1.1
		c0-0.8,0.5-1.1,1.7-1.1C47,86.5,47.7,86.5,48.4,86.5z M89.9,79.9c-22.1,0-44.2,0-66.3,0c0.1,1.4,0.9,2.2,2.4,2.2
		c8.8,0,17.7,0,26.6,0c7.5,0,15,0,22.5,0c0.7,0,1.4,0,2,0c3.6,0,7.2,0.1,10.8,0C89,82,89.8,81.1,89.9,79.9z M50.7,86.4
		c4,0,8,0,12.1,0c0-0.7,0-1.4,0-2.1c-4,0-8,0-12.1,0C50.7,85.1,50.7,85.7,50.7,86.4z"/>
	<path class="st0" d="M56.8,71c-9.4,0-17.2-7.7-17.2-17.2c0-9.4,7.7-17.1,17.1-17.2c9.5,0,17.2,7.7,17.2,17
		C73.9,63.2,66.2,71,56.8,71z M54.6,61.5c0.6-0.1,0.9-0.4,1.1-0.9c1.4-4.3,2.9-8.6,4.3-12.8c0.2-0.8,0.1-1.4-0.6-1.6
		s-1.2,0.1-1.5,0.9c-0.7,2.1-1.4,4.2-2.1,6.4c-0.7,2.2-1.4,4.3-2.2,6.5C53.2,60.8,53.7,61.6,54.6,61.5z M65.7,54.4
		c-1.2,1.4-2.5,2.7-3.7,4.1c-0.5,0.6-0.5,1.2-0.1,1.7c0.5,0.4,1.1,0.4,1.7-0.2c1.4-1.6,2.9-3.2,4.2-4.8c0.5-0.6,0.5-1.1,0-1.7
		c-1.4-1.6-2.8-3.2-4.2-4.8c-0.2-0.2-0.4-0.4-0.7-0.4c-0.5-0.1-0.9,0.1-1.1,0.5c-0.3,0.5-0.1,0.9,0.2,1.4
		C63.3,51.6,64.5,52.9,65.7,54.4z M47.7,54.4c0.1-0.2,0.2-0.2,0.3-0.4c1.1-1.2,2.2-2.5,3.3-3.8c0.2-0.3,0.4-0.8,0.4-1.1
		c-0.2-0.9-1.2-1.1-1.9-0.3c-1.2,1.3-2.4,2.6-3.5,4c-1.4,1.6-1.4,1.6,0,3.3c1.2,1.4,2.4,2.7,3.6,4c0.2,0.2,0.7,0.4,1.1,0.4
		c0.3-0.1,0.7-0.5,0.7-0.8c0.1-0.4-0.1-0.8-0.4-1.1C50.1,57.1,48.9,55.7,47.7,54.4z"/>
</g>
</svg>
