<?xml version="1.0" encoding="utf-8"?>
<!-- Generator: Adobe Illustrator 23.1.0, SVG Export Plug-In . SVG Version: 6.00 Build 0)  -->
<svg version="1.1" id="Layer_1" xmlns="http://www.w3.org/2000/svg" xmlns:xlink="http://www.w3.org/1999/xlink" x="0px" y="0px"
	 viewBox="0 0 113.4 141.7" style="enable-background:new 0 0 113.4 141.7;" xml:space="preserve">
<style type="text/css">
	.st0{fill:#CAA87A;}
</style>
<path class="st0" d="M37.7,92.8c0.1-0.8,0.1-1.6,0.2-2.4c0.2-1.5,0.3-3,0.6-4.6c0.2-1.4,1.1-2.3,2.4-2.8c1.1-0.4,2.2-0.7,3.3-1
	c0.3-0.1,0.4-0.2,0.4-0.5c0-0.7,0-1.5,0-2.2c0-0.3-0.1-0.4-0.4-0.6c-0.5-0.2-0.9-0.8-0.8-1.3c0.1-0.6,0.6-1,1.2-1c1.5,0,3,0,4.4,0
	c0.4,0,0.6-0.1,0.7-0.5c0.5-1.5,1.1-3,1.6-4.5c0.1-0.2,0.1-0.5,0-0.8c-0.5-1.9-1-3.8-1.4-5.8C50,64.3,50,63.6,50,63
	c0-0.1,0-0.3,0.1-0.4c0.5,0.8,1,1.6,1.5,2.4c0,0,0.1,0,0.1-0.1c0-0.2-0.1-0.4-0.1-0.6c-0.7-2.2-0.8-4.4-0.6-6.6
	c0.1-1,0.6-1.9,0.9-2.9c0-0.1,0.1-0.2,0.2-0.2c0,0,0.1,0,0.2-0.1c0.1,1.2,0.4,2.3,1,3.2c0,0,0.1,0,0.1,0c0-0.1,0-0.3,0-0.4
	c0-1.3,0.1-2.7,0-4c-0.1-3,0.8-5.7,2.2-8.2c0.3-0.6,0.6-1.1,1-1.7c0.1-0.1,0.2-0.3,0.3-0.4c0.1,0,0.1,0,0.2,0c0,0.8,0.1,1.6,0.1,2.4
	c0.1,0.8,0,1.6,0.5,2.4c0.2-6.2,2.8-11.3,6.7-15.8c0.2,1.5,0.1,2.9,0.6,4.3c0.4-5.7,3.5-9.7,8.3-12.7c-0.2,1.1-0.4,2.1-0.2,3.1
	c1.4-4.4,4.5-6.9,8.8-8c0,0,0.1,0,0.1,0.1c-0.5,0.8-1,1.5-1.5,2.3c0,0,0,0,0,0.1c0.1-0.1,0.3-0.2,0.4-0.3c0.9-0.6,1.8-1.2,2.7-1.8
	c0.2-0.1,0.4-0.2,0.6-0.3c0.5-0.2,0.6-0.1,0.5,0.4c-0.3,1.4-0.7,2.8-1.3,4.1c-0.6,1.3-1.4,2.4-2.4,3.5c-0.3,0.3-0.5,0.5-0.7,0.9
	c1.1-0.1,1.9-0.7,2.9-1.3c-0.8,4.6-2.8,8.3-6.8,10.5c0.7,0.1,2.5-0.4,4.2-1.3c-0.3,0.7-0.5,1.4-0.8,2.1c-0.7,1.9-1.6,3.8-2.8,5.5
	c-1.3,2-3.1,3.5-5.1,4.6c-0.2,0.1-0.4,0.2-0.6,0.4c1.5,0.1,2.7-0.4,4-0.8C73,52.6,70,57.6,64.3,60.4c0,0,0,0.1,0,0.1
	c0.8-0.2,1.6-0.3,2.4-0.5c0.8-0.2,1.5-0.6,2.3-0.9c-0.1,0.2-0.2,0.4-0.3,0.6c-1.2,2.2-2.9,3.9-4.9,5.2c-1.2,0.8-2.6,1.5-4,2
	c-0.2,0.1-0.4,0.2-0.7,0.3c0,0,0,0.1,0,0.1c1.2-0.2,2.5-0.3,3.8-0.5c-0.4,0.4-0.8,0.9-1.2,1.2c-0.8,0.6-1.5,1.2-2.3,1.6
	c-1.4,0.7-2.9,1.2-4.4,1.8c-0.2,0.1-0.3,0.1-0.6,0.2c0.2-0.5,0.3-0.8,0.4-1.2c2.9-7.4,6.1-14.6,9.8-21.6c3.9-7.5,7.9-14.8,12.2-22.1
	c0-0.1,0.1-0.1,0.1-0.2c0,0-0.1,0-0.1-0.1c-0.5,0.7-1.1,1.4-1.6,2.2c-3.2,4.8-6,9.9-8.8,14.9c-5.4,9.7-10,19.7-14.1,30.1
	c-0.4,0.9-0.7,1.8-1.1,2.8c0.5,0,0.9,0.1,1.3,0.1c0.2,0,0.4,0,0.5,0c0.7,0.1,1,0.4,1.1,1c0.1,0.5-0.2,1.1-0.8,1.3
	c-0.3,0.1-0.4,0.3-0.4,0.6c0,0.7,0,1.5,0,2.2c0,0.3,0.1,0.4,0.4,0.5c1,0.3,2,0.6,3,0.9c1.6,0.5,2.6,1.6,2.8,3.3
	c0.2,2.4,0.5,4.7,0.7,7.1c0.1,1.3-0.7,2.2-2,2.3c-0.3,0-0.6,0.1-0.9,0.1c-5.4,0-10.8,0-16.1,0c-0.4,0-0.9-0.1-1.3-0.1
	c-0.9,0-1.5-0.5-1.8-1.3c0-0.1-0.1-0.1-0.1-0.2C37.7,93.7,37.7,93.2,37.7,92.8z"/>
</svg>
