<?xml version="1.0" encoding="utf-8"?>
<!-- Generator: Adobe Illustrator 23.1.0, SVG Export Plug-In . SVG Version: 6.00 Build 0)  -->
<svg version="1.1" id="Layer_1" xmlns="http://www.w3.org/2000/svg" xmlns:xlink="http://www.w3.org/1999/xlink" x="0px" y="0px"
	 viewBox="0 0 113.4 141.7" style="enable-background:new 0 0 113.4 141.7;" xml:space="preserve">
<style type="text/css">
	.st0{fill:#CAA87A;}
</style>
<path class="st0" d="M55.5,28.2c-0.2-0.7-0.3-1.1-0.7-1.8c-0.2-1.1-0.4-2.1,0.6-3c0.2-0.2,0.6-0.4,0.6-0.9c0.3-1.2,0.8-1.4,1.6-1.4
	c0.9,0,1.4,0.4,1.7,1.3c0.1,0.3,0.2,0.6,0.4,0.7c1.1,0.8,1.2,1.9,0.8,3.1c-0.2,0.6-0.5,1.2-0.7,1.9c2.4-0.1,3.3,1.2,4.5,2.4
	c1.1,1.2,2.6,1.8,4.1,2.3c2.3,0.7,4.1,1.8,5.3,4c0.1,0.2,0.4,0.3,0.6,0.3c0.3,0,0.7-0.1,1-0.1c0.6,0,1,0.2,1.1,0.9
	c0.2,0.9,0.7,1.9,1.1,2.8c1.5-5.4,6.8-7.8,11-7.7c0.4,0,0.8,0,1.2,0c0.5,0,0.9,0,1.3-0.5c0.4-0.6,1.1-0.6,1.8-0.4
	c0.6,0.2,1,0.7,0.9,1.4c0,0.8,0.3,1.4,0.9,1.9c0.6,0.5,1.1,1.1,1.7,1.7c2.1,1.9,2.8,4.3,3.1,7c0.2,3-0.5,5.9-2,8.5
	c-0.9,1.7-1.9,3.3-2.8,5c-0.8,1.5-1.5,3.1-1.5,4.9c0,0.5,0.1,1,0.7,1.3c0.7,0.3,0.7,0.9,0.3,1.5c-0.6,0.8-1.2,1.7-1.4,2.8
	c0,0.2-0.5,0.4-0.8,0.5c-0.7,0-1.5-0.1-2.2-0.2c-1.2-0.1-2.3,0.1-3.3,0.9c-0.6,0.5-1.2,1.1-2.1,1.1c-0.1,0-0.3,0.2-0.3,0.3
	c-1.3,3.8-4.4,6.1-7.4,8.5c-0.4,0.3-0.8,0.5-1.2,0.8c-0.8,0.6-0.9,1.1-0.3,1.9c0.4,0.5,0.2,1.1-0.2,1.4c-0.8,0.7-1.4,1.2-2.3,1.7
	c-2.4,1.3-5.2,1.8-7.9,2.2c-5.4,0.7-10.8,0.7-16.1-0.3c-2.2-0.4-4.3-1-6.2-2.1c-0.7-0.4-1.4-0.9-1.9-1.4c-0.5-0.4-0.8-1-0.1-1.7
	c0.5-0.5,0.3-1.1-0.3-1.5c-1-0.7-2-1.3-2.9-2.1c-1.6-1.5-3.5-2.8-4.7-4.6c-0.5-0.8-0.5-1.9-1.2-2.6c-0.6-0.6-1.9-0.7-2.7-1.3
	c-3-2-4.8-5-6-8.3c-1-2.7-1.5-5.5-1.7-8.3c-0.1-2.9,0.1-5.4-0.6-8.8c-0.1-1-0.5-1.9-0.8-2.8c-0.8-1.9-2.1-3.3-4.1-4.1
	c-0.7-0.3-1.4-0.6-1.5-1.5c0-0.9,0.8-1.1,1.5-1.4c1.3-0.5,2.6-1,3.9-1.4c2.2-0.8,4.1-0.3,5.6,1.4c1.3,1.5,2.3,3.3,2.9,5.1
	c1.1,3,2,6,3,9c0.3,0.8,0.7,1.7,1.2,2.4c0.7,1.1,1.5,1.2,2.5,0.3c2.2-2,3.7-4.4,4.2-7.4c0.3-1.6,0.4-3.3,0.3-5
	c0-1.2,0.4-1.4,1.3-1.4c0.4,0,0.8,0,1.1-0.1c0.1-0.2,0.2-0.5,0.4-0.9c0.7-1.3,2-2.3,3.5-2.8c0.8-0.3,1.5-0.6,2.3-0.8
	c1.4-0.5,2.5-1.2,3.5-2.2C52.4,29.3,53.6,28.3,55.5,28.2z M67.8,58c0-2.8-0.7-5.3-2.3-7.6c-3.2-4.7-9.1-5.6-13.1-2.1
	c-5.4,4.8-5.5,14.3-0.1,19.2c3.3,3,8,3.1,11.3,0.2C66.6,65.2,67.7,61.8,67.8,58z M89.1,64c0,0.1,0-0.3,0-0.4
	c0.1-3.9,1.3-7.4,3.4-10.6c1-1.5,1.8-3.2,2.3-5c1.4-4.2-0.5-8.1-4.4-9.8c-3.5-1.5-7.1,0.2-8,3.9c-0.4,1.5,0.2,2.8,0.7,4.1
	c0.7,1.8,0.3,2.2-1.5,2.3c-0.1,0-0.1,0-0.2,0c-1,0.1-1.4,0.4-1.5,1.4c-0.1,1.1,0.2,2,0.8,2.9c0.8,1.2,1.7,2.5,2.2,3.8
	c1,2.4,1.7,4.9,2,7.5c0,0.2,0.2,0.6,0.2,0.6C86.6,64,87.9,63.9,89.1,64z"/>
</svg>
