<?xml version="1.0" encoding="utf-8"?>
<!-- Generator: Adobe Illustrator 23.1.0, SVG Export Plug-In . SVG Version: 6.00 Build 0)  -->
<svg version="1.1" id="Layer_1" xmlns="http://www.w3.org/2000/svg" xmlns:xlink="http://www.w3.org/1999/xlink" x="0px" y="0px"
	 viewBox="0 0 113.4 85" style="enable-background:new 0 0 113.4 85;" xml:space="preserve">
<style type="text/css">
	.st0{fill:#1A171B;}
</style>
<g>
	<g>
		<path class="st0" d="M66.7,85H30.1c-1.5,0-2.2-0.7-2.5-1.2c-1-1.7,0.3-4.5,0.6-5c2.4-5.2,5-11.5,5-12.5c0-0.6,0-1.2,0.1-1.8
			c0.1-1.3,0.2-2.7-0.1-3.7c-0.4-1.1-1.6-2.3-2.6-3.4c-0.4-0.5-0.9-0.9-1.2-1.3l-0.2-0.2c-2.9-3.4-5.8-6.9-7.6-11.1
			c-1.1-2.7-1.9-5.7-2.4-9.8c-0.4-2.9-0.7-7.4,0.1-11.7C22.3,9,39.5,0.2,54.5,0C60.9-0.1,70.2,1,78,6.9c1.8,1.3,7.8,6.2,9.4,12.3
			c0.7,2.8,0.2,5.3-0.2,7.8c-0.4,1.9-0.7,3.7-0.5,5.4l0,0.2c0.2,1.3,0.4,3,1.7,4.2c0.2,0.2,5.7,5.2,5.8,7.9c0.5,1.4,0.6,3.9-1.8,4.9
			c-0.5,0.2-0.9,0.4-1.3,0.5c-1,0.4-2,0.8-2.1,1.1c-0.2,0.4,0.2,1.2,0.5,1.5c0.6,0.6,1.5,1.7,1.4,2.8c0,0.6-0.3,1.1-0.8,1.4
			c-0.6,0.5-1.5,0.6-2.4,0.7c0.5,0.1,1,0.3,1.4,0.8c0.3,0.4,0.4,1,0.4,1.6c0,1.1-1,1.7-1.8,2.2c-0.4,0.3-0.9,0.6-1.1,0.9
			c0,0.4,0.6,1.5,0.9,2.1c0.5,0.9,0.9,1.6,0.9,2.3v0.2c0,1.2,0,5-3.4,6.2L84.8,74l-0.2,0c-0.1,0-10.8-0.4-13.5-0.4
			c-2.6,0-2.6,0.5-2.6,1.3c0,0.9,0.2,2.6,0.3,4.1c0.1,1.4,0.2,2.6,0.2,3.4C69,83.6,69,85,66.7,85z M55.2,2.3c-0.2,0-0.4,0-0.6,0
			c-11.9,0.2-30,6.9-33,21.5c-0.6,3-0.7,6.5-0.1,11c0.5,3.9,1.2,6.7,2.2,9.1c1.7,3.9,4.5,7.3,7.3,10.5l0.2,0.2
			c0.3,0.4,0.7,0.8,1.1,1.2c1.2,1.2,2.5,2.6,3.1,4.1c0.5,1.4,0.4,3.1,0.3,4.6c0,0.6-0.1,1.1-0.1,1.6c0,2-4,10.9-5.2,13.6
			c-0.5,1-0.9,2.5-0.7,2.9c0,0.1,0.3,0.1,0.6,0.1h36.6c0,0,0.1,0,0.1,0c0-0.2,0-0.4,0-0.6c0-0.6-0.1-1.8-0.2-3.1
			c-0.1-1.6-0.3-3.2-0.3-4.3c0-3.2,2.4-3.6,4.8-3.6c2.5,0,11.7,0.4,13.3,0.4c1.5-0.7,1.7-2.5,1.7-4v-0.2c0-0.1-0.4-0.8-0.6-1.2
			c-0.8-1.5-1.8-3.1-0.9-4.4c0.5-0.7,1.2-1.2,1.8-1.5c0.2-0.2,0.6-0.4,0.7-0.5c-0.2,0-0.4-0.1-0.5-0.1c-0.4-0.1-0.9-0.1-1.5-0.3
			l-0.2-0.1l-0.2-0.2c-0.8-0.7-1.1-1.4-1-2.1c0.1-0.6,0.4-1,0.9-1.3c0.5-0.2,1.1-0.3,2-0.4c0.6,0,1.6-0.1,2-0.3
			c-0.1-0.2-0.3-0.6-0.7-0.9c-0.8-0.8-1.6-2.6-0.9-4c0.5-1.2,1.8-1.7,3.4-2.3c0.4-0.2,0.8-0.3,1.3-0.5c1.1-0.5,0.5-2.2,0.4-2.2
			L92,45l0-0.3c0-0.8-2.6-4-5.1-6.3c-2-1.8-2.3-4.1-2.5-5.6l0-0.2c-0.3-2.1,0.1-4.1,0.5-6.1c0.5-2.3,0.9-4.5,0.3-6.8
			c-1-3.6-4.2-7.7-8.6-11C69.6,3.4,61.2,2.3,55.2,2.3z M86,57.2L86,57.2L86,57.2z"/>
	</g>
	<path class="st0" d="M35.6,30.9v16.7h16.7V30.9H35.6z M48.2,40.7h-9v-2.1h9V40.7z"/>
	<path class="st0" d="M54.3,30.9v16.7H71V30.9H54.3z M67.4,42.4h-9v-2.1h9V42.4z M67.4,38.9h-9v-2.1h9V38.9z"/>
	<path class="st0" d="M35.6,12v16.7h16.7V12H35.6z M48.2,22H45v3.2h-2.6V22h-3.2v-2.6h3.2v-3.2H45v3.2h3.2V22z"/>
	<path class="st0" d="M54.3,12v16.7H71V12H54.3z M66.9,23.1l-1.6,1.6l-2.6-2.6L60,24.7l-1.6-1.6l2.6-2.6l-2.6-2.6l1.6-1.6l2.6,2.6
		l2.6-2.6l1.6,1.6l-2.6,2.6L66.9,23.1z"/>
</g>
</svg>
