<?xml version="1.0" encoding="utf-8"?>
<!-- Generator: Adobe Illustrator 23.1.0, SVG Export Plug-In . SVG Version: 6.00 Build 0)  -->
<svg version="1.1" id="Layer_1" xmlns="http://www.w3.org/2000/svg" xmlns:xlink="http://www.w3.org/1999/xlink" x="0px" y="0px"
	 viewBox="0 0 113.4 141.7" style="enable-background:new 0 0 113.4 141.7;" xml:space="preserve">
<style type="text/css">
	.st0{fill:#CAA87A;}
</style>
<g>
	<g>
		<path class="st0" d="M66,94H31.8c-1.4,0-2-0.6-2.3-1.2c-1-1.6,0.3-4.2,0.6-4.7c2.2-4.8,4.7-10.7,4.7-11.7c0-0.5,0-1.1,0.1-1.7
			c0.1-1.2,0.2-2.5-0.1-3.4c-0.4-1-1.5-2.1-2.4-3.2c-0.4-0.4-0.8-0.8-1.1-1.2L31,66.7c-2.7-3.2-5.4-6.4-7.1-10.4
			c-1.1-2.5-1.8-5.3-2.2-9.1c-0.3-2.8-0.7-6.9,0.1-10.9c2.7-13.4,18.9-21.6,32.9-21.8c6-0.1,14.7,1,22,6.4c1.7,1.3,7.3,5.8,8.8,11.5
			c0.7,2.6,0.2,5-0.2,7.3c-0.3,1.8-0.7,3.4-0.5,5.1l0,0.2c0.2,1.2,0.3,2.8,1.6,3.9c0.2,0.2,5.3,4.8,5.5,7.4c0.4,1.3,0.6,3.6-1.6,4.5
			c-0.4,0.2-0.9,0.4-1.3,0.5c-0.9,0.4-1.9,0.7-2,1c-0.2,0.3,0.2,1.1,0.4,1.4c0.5,0.5,1.4,1.6,1.3,2.6c0,0.5-0.3,1-0.8,1.3
			c-0.6,0.4-1.4,0.6-2.3,0.7c0.5,0.1,1,0.3,1.3,0.8c0.3,0.4,0.4,0.9,0.3,1.5c0,1-0.9,1.6-1.7,2c-0.4,0.3-0.8,0.5-1,0.8
			c0,0.4,0.6,1.4,0.9,2c0.5,0.8,0.8,1.5,0.8,2.1v0.1c0,1.2,0,4.7-3.2,5.8L83,83.6l-0.2,0c-0.1,0-10.1-0.4-12.6-0.4
			c-2.4,0-2.4,0.5-2.4,1.3c0,0.9,0.1,2.4,0.3,3.8c0.1,1.3,0.2,2.5,0.2,3.1C68.2,92.6,68.2,94,66,94z M55.3,16.6c-0.2,0-0.4,0-0.6,0
			c-11.1,0.1-28,6.5-30.8,20.1c-0.6,2.9-0.6,6.1-0.1,10.3c0.4,3.6,1.1,6.2,2.1,8.6c1.6,3.7,4.2,6.8,6.8,9.8l0.2,0.2
			c0.3,0.4,0.7,0.7,1.1,1.1c1.1,1.1,2.3,2.5,2.9,3.9c0.5,1.3,0.4,2.9,0.3,4.3c0,0.5-0.1,1.1-0.1,1.5c0,1.9-3.7,10.2-4.9,12.7
			c-0.5,1-0.9,2.3-0.7,2.7c0,0.1,0.3,0.1,0.5,0.1H66c0,0,0.1,0,0.1,0c0-0.2,0-0.3,0-0.5c0-0.6-0.1-1.7-0.2-2.9c-0.1-1.5-0.3-3-0.3-4
			c0-3,2.3-3.4,4.5-3.4c2.4,0,10.9,0.3,12.5,0.4c1.4-0.6,1.6-2.3,1.6-3.7v-0.2c0-0.1-0.4-0.7-0.6-1.1c-0.8-1.4-1.6-2.9-0.8-4.1
			c0.5-0.7,1.1-1.1,1.7-1.4c0.2-0.1,0.5-0.4,0.7-0.5c-0.1,0-0.3-0.1-0.5-0.1c-0.4-0.1-0.9-0.1-1.4-0.3L83.1,70l-0.2-0.2
			c-0.7-0.6-1-1.3-1-2c0.1-0.5,0.4-1,0.9-1.2c0.4-0.2,1.1-0.3,1.9-0.3c0.5,0,1.5-0.1,1.9-0.3c-0.1-0.2-0.3-0.5-0.6-0.9
			c-0.7-0.7-1.5-2.4-0.9-3.7c0.5-1.1,1.7-1.5,3.2-2.1c0.4-0.1,0.8-0.3,1.2-0.5c1-0.4,0.4-2,0.4-2l-0.1-0.2l0-0.3
			c0-0.8-2.4-3.8-4.8-5.9c-1.9-1.7-2.1-3.8-2.3-5.2l0-0.2c-0.2-2,0.1-3.9,0.5-5.7c0.4-2.2,0.8-4.2,0.2-6.4c-0.9-3.4-3.9-7.2-8-10.3
			C68.8,17.6,60.9,16.6,55.3,16.6z M84.1,67.9L84.1,67.9L84.1,67.9z"/>
	</g>
	<path class="st0" d="M36.9,43.3V59h15.6V43.3H36.9z M48.7,52.5h-8.4v-1.9h8.4V52.5z"/>
	<path class="st0" d="M54.5,43.3V59h15.6V43.3H54.5z M66.7,54.1h-8.4v-1.9h8.4V54.1z M66.7,50.9h-8.4v-1.9h8.4V50.9z"/>
	<path class="st0" d="M36.9,25.7v15.6h15.6V25.7H36.9z M48.7,35h-3v3h-2.5v-3h-3v-2.5h3v-3h2.5v3h3V35z"/>
	<path class="st0" d="M54.5,25.7v15.6h15.6V25.7H54.5z M66.3,36l-1.5,1.5l-2.5-2.5l-2.5,2.5L58.3,36l2.5-2.5l-2.5-2.5l1.5-1.5
		l2.5,2.5l2.5-2.5l1.5,1.5l-2.5,2.5L66.3,36z"/>
</g>
</svg>
