<?xml version="1.0" encoding="utf-8"?>
<!-- Generator: Adobe Illustrator 23.1.0, SVG Export Plug-In . SVG Version: 6.00 Build 0)  -->
<svg version="1.1" id="Layer_1" xmlns="http://www.w3.org/2000/svg" xmlns:xlink="http://www.w3.org/1999/xlink" x="0px" y="0px"
	 viewBox="0 0 113.4 85" style="enable-background:new 0 0 113.4 85;" xml:space="preserve">
<g>
	<path d="M61.5,79.3c-3.6,0-7.2,0-10.8,0c-0.4-0.2-0.7-0.5-1.1-0.5c-14.5-2.9-24.4-11.1-29.7-24.9c-1.1-2.9-1.6-6.1-2.4-9.1
		c0-2.6,0-5.1,0-7.7c1.2-5.9,2.6-11.8,6.2-16.8c6.2-8.9,14.5-14.9,25.1-17.6c1.7,0,3.4,0,5.1,0c0.5,0.2,0.9,0.5,1.4,0.6
		c7.1,2.1,9.7,6.1,8.3,13.3c-0.7,3.6-2,7.1-2.9,10.7c-0.4,1.8-1,4.1-0.2,5.6c1,1.8,3.1,3.1,5,4.2c0.3,0.2,2.2-1.7,2.8-2.9
		C73.8,24,80,14.3,87.8,5.6c2.5-2.8,3.4-2.8,6.3-0.3c0,0.9,0,1.7,0,2.6c-4,8.8-8,17.7-12.1,26.5c-0.7,1.5-1.6,2.9-2.5,4.4
		c8.4,2.5,11.4,6.2,10.5,13c-0.8,6.9-3.9,12.7-8.7,17.6C75.9,74.9,69,77.7,61.5,79.3z M65.4,41.1c-8.6-4.3-9.7-7.1-7.2-16.1
		c0.8-3,1.8-5.9,2.5-8.9c1.2-5.8-1.6-9.6-7.5-10.1c-1.8-0.2-3.6,0-5.3,0.4c-9,2.4-16,7.8-21.2,15.3C18,34.3,19,51.2,28.8,63.2
		c9.7,11.9,26.5,16.3,40.6,10.4c10-4.2,16.4-11.7,17.6-22.9c0.5-5.1-3.4-9-8.5-9c-0.6,0-1.4,0.2-1.6,0.6c-1.8,3-3.7,6.1-5.3,9.2
		c-1.2,2.3-1.6,5.3-3.3,7.1c-3.6,3.9-7.7,7.3-11.7,10.8c-0.6,0.5-1.8,0.4-2.8,0.6c0-0.9-0.2-1.8,0-2.6c1.1-4.4,2.7-8.8,3.2-13.2
		c0.4-3.9,2.2-6.4,4.9-8.9C63.2,44.2,64.2,42.6,65.4,41.1z M90.7,7.7c-1,0.8-1.3,1-1.6,1.3C80.5,19.1,73.5,30.1,68,42.1
		c-1.2,2.5-0.4,3.7,2.3,4.2C78.7,34.7,85.7,22.2,90.7,7.7z M59,63.4c3.9-3.6,8.3-6.2,9.3-11.6c0.2-1-0.3-2.5-1-3.1
		c-2.4-1.9-6-0.2-6.7,3.2C59.9,55.5,59.6,59.2,59,63.4z"/>
	<path d="M39.1,19.2c0-4.8,3.9-8.7,8.7-8.6c4.5,0.1,8.3,4,8.4,8.7s-4,8.9-8.6,8.8C43,28.1,39.1,24.1,39.1,19.2z M47.7,13.7
		c-2.9,0-5.3,2.4-5.3,5.5c-0.1,3.2,2.3,5.8,5.4,5.8c2.8,0,5.4-2.6,5.4-5.5C53.2,16.3,50.6,13.7,47.7,13.7z"/>
	<path d="M40.1,62.8c-4.2,0-7.2-2.9-7.3-7.1c0-4.2,3-7.2,7.2-7.3c4.1,0,7.4,3.2,7.4,7.1C47.4,59.7,44.3,62.8,40.1,62.8z M35.9,55.1
		c-0.1,2.7,1.8,4.7,4,4.8c2.1,0,4.3-2.1,4.3-4.3c0.1-2.1-2.1-4.3-4.3-4.2C37.5,51.6,36.2,53.1,35.9,55.1z"/>
	<path d="M41.9,37.1c0,4.1-3.1,7.2-7.2,7.2s-7.2-3.1-7.1-7.3c0-4.1,3.3-7.3,7.2-7.3C38.8,29.7,41.9,33,41.9,37.1z M34.9,41.2
		c2.3,0,4.3-2,4.2-4.3c-0.1-2.2-2.2-4.3-4.4-4.1c-2.4,0.2-3.8,1.6-3.9,4.1C30.7,39.3,32.6,41.2,34.9,41.2z"/>
</g>
</svg>
