<?xml version="1.0" encoding="utf-8"?>
<!-- Generator: Adobe Illustrator 23.1.0, SVG Export Plug-In . SVG Version: 6.00 Build 0)  -->
<svg version="1.1" id="Layer_1" xmlns="http://www.w3.org/2000/svg" xmlns:xlink="http://www.w3.org/1999/xlink" x="0px" y="0px"
	 viewBox="0 0 113.4 141.7" style="enable-background:new 0 0 113.4 141.7;" xml:space="preserve">
<style type="text/css">
	.st0{fill:#CAA87A;}
</style>
<g>
	<path class="st0" d="M62.4,96.6c-3.6,0-7.2,0-10.8,0c-0.4-0.2-0.7-0.5-1.1-0.5C36,93.2,26.1,85,20.8,71.2c-1.1-2.9-1.6-6.1-2.4-9.1
		c0-2.6,0-5.1,0-7.7c1.2-5.9,2.6-11.8,6.2-16.8c6.2-8.9,14.5-14.9,25.1-17.6c1.7,0,3.4,0,5.1,0c0.5,0.2,0.9,0.5,1.4,0.6
		c7.1,2.1,9.7,6.1,8.3,13.3c-0.7,3.6-2,7.1-2.9,10.7c-0.4,1.8-1,4.1-0.2,5.6c1,1.8,3.1,3.1,5,4.2c0.3,0.2,2.2-1.7,2.8-2.9
		c5.5-10.2,11.7-19.9,19.5-28.6c2.5-2.8,3.4-2.8,6.3-0.3c0,0.9,0,1.7,0,2.6c-4,8.8-8,17.7-12.1,26.5c-0.7,1.5-1.6,2.9-2.5,4.4
		c8.4,2.5,11.4,6.2,10.5,13c-0.8,6.9-3.9,12.7-8.7,17.6C76.8,92.2,69.9,95,62.4,96.6z M66.3,58.4c-8.6-4.3-9.7-7.1-7.2-16.1
		c0.8-3,1.8-5.9,2.5-8.9c1.2-5.8-1.6-9.6-7.5-10.1c-1.8-0.2-3.6,0-5.3,0.4c-9,2.4-16,7.8-21.2,15.3c-8.7,12.6-7.7,29.5,2.1,41.5
		c9.7,11.9,26.5,16.3,40.6,10.4C80.3,86.7,86.7,79.2,87.9,68c0.5-5.1-3.4-9-8.5-9c-0.6,0-1.4,0.2-1.6,0.6c-1.8,3-3.7,6.1-5.3,9.2
		c-1.2,2.3-1.6,5.3-3.3,7.1c-3.6,3.9-7.7,7.3-11.7,10.8c-0.6,0.5-1.8,0.4-2.8,0.6c0-0.9-0.2-1.8,0-2.6c1.1-4.4,2.7-8.8,3.2-13.2
		c0.4-3.9,2.2-6.4,4.9-8.9C64.1,61.5,65.1,59.9,66.3,58.4z M91.6,25c-1,0.8-1.3,1-1.6,1.3c-8.6,10.1-15.6,21.1-21.1,33.1
		c-1.2,2.5-0.4,3.7,2.3,4.2C79.6,52,86.6,39.5,91.6,25z M59.9,80.7c3.9-3.6,8.3-6.2,9.3-11.6c0.2-1-0.3-2.5-1-3.1
		c-2.4-1.9-6-0.2-6.7,3.2C60.8,72.8,60.5,76.5,59.9,80.7z"/>
	<path class="st0" d="M40,36.5c0-4.8,3.9-8.7,8.7-8.6c4.5,0.1,8.3,4,8.4,8.7c0.1,4.7-4,8.9-8.6,8.8C43.9,45.4,40,41.4,40,36.5z
		 M48.6,31c-2.9,0-5.3,2.4-5.3,5.5c-0.1,3.2,2.3,5.8,5.4,5.8c2.8,0,5.4-2.6,5.4-5.5C54.1,33.6,51.5,31,48.6,31z"/>
	<path class="st0" d="M41,80.1c-4.2,0-7.2-2.9-7.3-7.1c0-4.2,3-7.2,7.2-7.3c4.1,0,7.4,3.2,7.4,7.1C48.3,77,45.2,80.1,41,80.1z
		 M36.8,72.4c-0.1,2.7,1.8,4.7,4,4.8c2.1,0,4.3-2.1,4.3-4.3c0.1-2.1-2.1-4.3-4.3-4.2C38.4,68.9,37.1,70.4,36.8,72.4z"/>
	<path class="st0" d="M42.8,54.4c0,4.1-3.1,7.2-7.2,7.2c-4.1,0-7.2-3.1-7.1-7.3c0-4.1,3.3-7.3,7.2-7.3C39.7,47,42.8,50.3,42.8,54.4z
		 M35.8,58.5c2.3,0,4.3-2,4.2-4.3c-0.1-2.2-2.2-4.3-4.4-4.1c-2.4,0.2-3.8,1.6-3.9,4.1C31.6,56.6,33.5,58.5,35.8,58.5z"/>
</g>
</svg>
