<?xml version="1.0" encoding="utf-8"?>
<!-- Generator: Adobe Illustrator 23.1.0, SVG Export Plug-In . SVG Version: 6.00 Build 0)  -->
<svg version="1.1" id="Layer_1" xmlns="http://www.w3.org/2000/svg" xmlns:xlink="http://www.w3.org/1999/xlink" x="0px" y="0px"
	 viewBox="0 0 113.4 85" style="enable-background:new 0 0 113.4 85;" xml:space="preserve">
<style type="text/css">
	.st0{fill:#4B4B4D;}
</style>
<g>
	<polygon points="24.9,3.5 54.5,18.5 54.5,55.6 13.7,37.1 	"/>
	<polygon points="88.1,3.5 58.5,18.5 58.5,55.6 99.3,37.1 	"/>
	<path class="st0" d="M62.4,61.7c0.7,0,36.9,19.9,36.9,19.9v-7.1L80.9,63.7l-0.3-4.5l-4.4-2.9l6.8-3.4l12.3,6l0.4-6.7L91.1,49
		l17.9-8L97.4,7.2h-4.1l10.8,31.6L59.3,60c0,0-2.5,1.1-4.8,0.1c-2.3-1-45.4-20.7-45.4-20.7L20.5,6.5h-4L4.5,41.4l18,7.7l-5.1,2.9
		v7.4L31,53l6.4,3.2l-4.8,3.1l-0.1,4L13.7,74.7v6.8l36.7-19.8c0,0,2.7,1.8,4.2,2.1s3,0.1,3.9,0.1C59.4,63.9,62.4,61.7,62.4,61.7z"/>
</g>
</svg>
