<?xml version="1.0" encoding="utf-8"?>
<!-- Generator: Adobe Illustrator 23.1.0, SVG Export Plug-In . SVG Version: 6.00 Build 0)  -->
<svg version="1.1" id="Layer_1" xmlns="http://www.w3.org/2000/svg" xmlns:xlink="http://www.w3.org/1999/xlink" x="0px" y="0px"
	 viewBox="0 0 113.4 141.7" style="enable-background:new 0 0 113.4 141.7;" xml:space="preserve">
<style type="text/css">
	.st0{fill:#CAA87A;}
	.st1{fill:#A88D67;}
</style>
<g>
	<polygon class="st0" points="30.8,26.2 54.9,38.5 54.9,68.7 21.7,53.7 	"/>
	<polygon class="st0" points="82.3,26.2 58.1,38.5 58.1,68.7 91.4,53.7 	"/>
	<path class="st1" d="M61.3,73.6c0.6,0,30.1,16.2,30.1,16.2v-5.7l-15-8.8l-0.3-3.7l-3.6-2.3l5.6-2.8l10,4.9l0.3-5.5l-3.8-2.6
		l14.5-6.5l-9.4-27.5h-3.3L95.3,55L58.8,72.2c0,0-2,0.9-3.9,0.1C53.1,71.5,18,55.4,18,55.4l9.2-26.7H24l-9.8,28.4l14.6,6.3l-4.2,2.3
		v6l11.1-5.1l5.2,2.6l-3.9,2.5L37,74.9l-15.3,9.3v5.6l29.8-16.1c0,0,2.2,1.5,3.4,1.7c1.2,0.2,2.4,0.1,3.2,0.1
		C58.9,75.5,61.3,73.6,61.3,73.6z"/>
</g>
</svg>
