<?xml version="1.0" encoding="utf-8"?>
<!-- Generator: Adobe Illustrator 23.1.0, SVG Export Plug-In . SVG Version: 6.00 Build 0)  -->
<svg version="1.1" id="Layer_1" xmlns="http://www.w3.org/2000/svg" xmlns:xlink="http://www.w3.org/1999/xlink" x="0px" y="0px"
	 viewBox="0 0 113.4 85" style="enable-background:new 0 0 113.4 85;" xml:space="preserve">
<style type="text/css">
	.st0{fill:#1A171B;}
</style>
<g>
	<path class="st0" d="M76.3,55.1c0,2.7,0,5.3,0,7.9c0,2.4,0,4.8,0,7.2c0,1.6-0.4,2.1-2.1,2.1c-1,0-2.1,0-3.1,0c-0.1,0-0.1,0-0.3,0.1
		c0,1.5,0,3.1,0,4.7c0,0.2,0.5,0.4,0.7,0.5c2.7,0.9,4.3,2.7,4.7,5.5c0.2,1.5-0.4,2.2-1.9,2.2c-4.8,0-9.5,0-14.3,0
		c-1.3,0-1.8-0.5-1.8-1.8c0-3.3,0-6.6,0-9.9c0-0.4,0-0.8,0-1.3c-0.9,0-1.7,0-2.7,0c0,0.4,0,0.8,0,1.2c0,3.2,0,6.5,0,9.7
		c0,1.6-0.4,2-2,2c-4.7,0-9.4,0-14.1,0c-1.6,0-2.1-0.5-1.9-2.1c0.2-2.4,2-4.7,4.4-5.5c0.3-0.1,0.7-0.2,1-0.3c0-1.7,0-3.3,0-5.2
		c-1.2,0-2.4,0-3.6,0c-1.3,0-1.8-0.5-1.8-1.8c0-4.6,0-9.2,0-13.8c0-0.4,0-0.8,0-1.2c-3.7-0.1-6.9-1.4-9.3-4.3
		c-2.4-2.8-3.4-6.1-2.6-9.9c-1.4-0.8-2.6-2.1-3-3.9c-0.3-1.2-0.3-2.5-0.3-3.7c0-0.8,0.5-1.2,1.3-1.2c0.8,0,1.3,0.4,1.4,1.2
		c0.1,0.5,0,1.1,0,1.7c0.1,2.3,1.7,3.8,3.8,3.8c2.1,0,3.6-1.6,3.7-3.8c0-0.5,0-1,0-1.5c0.1-0.9,0.6-1.5,1.4-1.4
		c0.9,0.1,1.3,0.6,1.4,1.4c0.2,2.8-0.4,5.3-2.7,6.8c0.2,1.1,0.4,2.1,0.5,3.1c0.3,2.1,2,3.5,4.1,3.4c0-0.8,0-1.6,0-2.4
		c0-1.4,0.5-1.9,1.9-1.9c3.6,0,7.2,0,10.8,0c0.4,0,0.7,0,1.2,0c0-1.2,0-2.2,0-3.4c-2.4,0-4.8,0-7.2,0c-3.3-0.1-6.2-2.5-6.6-5.7
		c-0.2-1.3-0.1-2.6-0.1-4c0-1.4,0-2.9,0-4.5c-1.2,0-2.3,0-3.4,0c-1.1,0-1.8-0.6-1.8-1.4c0-0.8,0.7-1.4,1.7-1.4c1.1,0,2.1,0,3.4,0
		c0-0.4,0-0.7,0.1-1.1c0-2,0-4,0-5.9c0-1.3,0.5-1.8,1.8-1.8c5,0,9.9,0,14.9,0c0.3,0,0.7,0,1,0c0.4-1.6,0.3-1.8-1-2.4
		c-2.5-1.2-3.9-4-3.3-6.7c0.6-2.7,3-4.7,5.7-4.7c2.8,0,5.2,1.9,5.9,4.6C63.3,7,62,9.9,59.5,11c-1.2,0.5-1.5,1.2-1.2,2.5
		c0.3,0,0.7,0,1.1,0c4.9,0,9.8,0,14.7,0c1.6,0,2,0.4,2,2c0,2.2,0,4.4,0,6.8c1.2,0,2.2,0,3.3,0c1.2,0,1.8,0.5,1.8,1.4
		c0,0.9-0.6,1.4-1.8,1.4c-1.1,0-2.1,0-3.3,0c0,1.6-0.1,3,0,4.5c0.5,6.9-2.2,10.4-9.7,9.8c-1.4-0.1-2.8,0-4.2,0c0,1.1,0,2.2,0,3.4
		c0.4,0,0.7,0.1,1.1,0.1c3.5,0,7.1,0,10.6,0c1.9,0,2.2,0.4,2.2,2.3c0,0.5,0,1,0,1.7c3.7,0.1,7,1.4,9.3,4.3c2.4,2.9,3.5,6.1,2.4,10
		c0.1,0.1,0.2,0.2,0.4,0.4c2.4,1.8,2.8,4.3,2.6,7.1c-0.1,0.7-0.6,1.2-1.4,1.2c-0.8,0-1.3-0.5-1.4-1.2c-0.1-0.6,0-1.2,0-1.8
		c-0.1-2.1-1.7-3.7-3.7-3.8c-2,0-3.7,1.6-3.8,3.7c0,0.5,0,1,0,1.6c0,0.9-0.5,1.4-1.4,1.5c-0.8,0.1-1.4-0.6-1.5-1.5
		c-0.2-3.1,0.6-5,2.9-7c-0.2-1.1-0.3-2.1-0.5-3.2C79.8,56.3,78.3,55,76.3,55.1z M73.3,69.3c0-7.9,0-15.7,0-23.5c-11,0-22,0-32.9,0
		c0,7.9,0,15.7,0,23.5C51.4,69.3,62.3,69.3,73.3,69.3z M40.4,31.2c11,0,22,0,32.9,0c0-4.9,0-9.8,0-14.6c-11,0-22,0-32.9,0
		C40.4,21.4,40.4,26.3,40.4,31.2z M40.7,34.2c0.8,1.7,2.1,2.4,3.8,2.4c1.8,0,3.7,0,5.5,0c6.3,0,12.6,0,19,0c2.1,0,3.4-0.8,4-2.4
		C62.2,34.2,51.5,34.2,40.7,34.2z M76.3,52c0.1,0,0.2,0.1,0.3,0.1c3.9,0.2,6.5,3.5,6.5,6.6c0,0.8,0.4,1.5,1.3,1.4
		c0.9-0.1,1.2-0.7,1.2-1.5c0-4.1-3.3-8-7.4-8.8c-0.6-0.1-1.3-0.1-1.9-0.2C76.3,50.5,76.3,51.3,76.3,52z M52.7,72.5
		c-2.3,0-4.5,0-6.8,0c0,1.6,0,3.2,0,4.8c2.3,0,4.5,0,6.8,0C52.7,75.6,52.7,74.1,52.7,72.5z M61.1,77.3c2.3,0,4.5,0,6.7,0
		c0-1.6,0-3.2,0-4.8c-2.3,0-4.5,0-6.8,0c0,1.4,0,2.6,0,3.9C61,76.7,61.1,76.9,61.1,77.3z M37.4,50.1c-0.2,0-0.4-0.1-0.6-0.1
		c-3.6-0.3-6.2-2.9-6.4-6.5c-0.1-1-0.5-1.5-1.3-1.4c-1,0.1-1.1,0.8-1.1,1.6c0.1,2.5,1.1,4.6,2.9,6.3c1.8,1.7,4,2.6,6.5,2.5
		C37.4,51.7,37.4,51,37.4,50.1z M56.9,2.7c-1.8,0-3.1,1.5-3.1,3.2c0,1.7,1.5,3.1,3.2,3c1.7,0,3.1-1.5,3.1-3.2
		C60,4.1,58.6,2.7,56.9,2.7z M52.6,80.3c-3.1,0-6.2-0.1-9.3,0c-1.2,0-2,0.9-2.6,2c4.1,0,8,0,11.9,0C52.6,81.6,52.6,80.9,52.6,80.3z
		 M61.1,82.3c4,0,7.9,0,12,0c-0.8-1.4-1.8-2-3.2-2.1c-1.3,0-2.7,0-4,0c-1.5,0-3.1,0-4.7,0C61.1,81,61.1,81.6,61.1,82.3z M54.4,39.5
		c0,1.2,0,2.2,0,3.3c1.7,0,3.3,0,4.9,0c0-1.1,0-2.2,0-3.3C57.7,39.5,56.1,39.5,54.4,39.5z"/>
	<path class="st0" d="M42.5,57.5c0-4.1,3.4-7.5,7.5-7.5c4.1,0,7.5,3.5,7.4,7.6c0,4.1-3.4,7.4-7.5,7.4C45.9,65,42.5,61.6,42.5,57.5z
		 M51.7,53.3c-2-1-4.6-0.1-5.8,2c-1.2,2.1-0.4,4.8,1.6,6.1c2.2,1.3,5,0.7,6.3-1.4c1.2-2,0.9-4.6-0.7-5.7c-0.1,0.5-0.1,1-0.3,1.5
		c-0.5,0.9-1.1,1.7-1.7,2.5c-0.5,0.7-1.2,0.9-2,0.4c-0.7-0.4-0.8-1.2-0.4-2c0.4-0.7,0.9-1.5,1.4-2.2C50.7,54.1,51.2,53.7,51.7,53.3z
		"/>
	<path class="st0" d="M66.2,51.5c1.1,0,2.2,0,3.3,0c1,0,1.6,0.6,1.6,1.4s-0.6,1.4-1.6,1.4c-2.3,0-4.5,0-6.8,0c-1,0-1.6-0.6-1.6-1.4
		c0-0.9,0.6-1.4,1.7-1.4C64,51.5,65.1,51.5,66.2,51.5z"/>
	<path class="st0" d="M66.1,63.6c-1.1,0-2.2,0-3.3,0c-0.9,0-1.5-0.4-1.5-1.3c-0.1-0.8,0.5-1.5,1.5-1.5c2.3,0,4.6,0,6.9,0
		c1,0,1.6,0.6,1.6,1.5c0,0.8-0.6,1.4-1.6,1.4C68.4,63.6,67.3,63.6,66.1,63.6z"/>
	<path class="st0" d="M66.2,56.1c1.1,0,2.2,0,3.3,0c1,0,1.6,0.6,1.6,1.4c0,0.8-0.6,1.4-1.6,1.4c-2.3,0-4.5,0-6.8,0
		c-1,0-1.6-0.6-1.6-1.4c0-0.8,0.6-1.4,1.6-1.4C64,56.1,65.1,56.1,66.2,56.1L66.2,56.1z"/>
	<path class="st0" d="M43.3,23.9c0-3.2,2.6-5.6,5.7-5.6c3.1,0.1,5.5,2.6,5.5,5.6c0,3.1-2.6,5.6-5.7,5.6C45.8,29.5,43.3,27,43.3,23.9
		z M50.2,21.5c0.2,1.2,0.1,2.3-0.9,2.9c-0.8,0.5-1.8,0.5-2.8,0.8c0.4,0.9,1.3,1.5,2.4,1.5c1.2,0,2.3-0.9,2.6-2.1
		C51.9,23.5,51.5,22.4,50.2,21.5z"/>
	<path class="st0" d="M64.9,18.3c3.1,0.1,5.6,2.6,5.5,5.7c-0.1,3.1-2.7,5.6-5.8,5.5c-3.2-0.1-5.6-2.6-5.5-5.8
		C59.3,20.7,61.8,18.2,64.9,18.3z M64.1,26.4c0.3-0.9,0.5-1.9,1-2.5c0.5-0.6,1.5-0.8,2.3-1.2c-0.5-1.2-1.6-1.9-2.9-1.7
		c-1.3,0.2-2.3,1.4-2.3,2.7C62.1,25.1,62.9,26.2,64.1,26.4z"/>
</g>
</svg>
