<?xml version="1.0" encoding="utf-8"?>
<!-- Generator: Adobe Illustrator 23.1.0, SVG Export Plug-In . SVG Version: 6.00 Build 0)  -->
<svg version="1.1" id="Layer_1" xmlns="http://www.w3.org/2000/svg" xmlns:xlink="http://www.w3.org/1999/xlink" x="0px" y="0px"
	 viewBox="0 0 113.4 141.7" style="enable-background:new 0 0 113.4 141.7;" xml:space="preserve">
<style type="text/css">
	.st0{fill:#CAA87A;}
</style>
<g>
	<path class="st0" d="M76.6,67.2c0,2.7,0,5.4,0,8.1c0,2.4,0,4.9,0,7.4c0,1.7-0.4,2.1-2.2,2.1c-1.1,0-2.1,0-3.2,0
		c-0.1,0-0.1,0.1-0.4,0.1c0,1.6,0,3.2,0.1,4.8c0,0.2,0.5,0.4,0.7,0.6c2.7,0.9,4.4,2.7,4.9,5.7c0.2,1.5-0.4,2.2-1.9,2.2
		c-4.9,0-9.8,0-14.6,0c-1.4,0-1.9-0.5-1.9-1.9c0-3.4,0-6.8,0-10.1c0-0.4,0-0.9,0-1.3c-0.9,0-1.7,0-2.7,0c0,0.4,0,0.8,0,1.2
		c0,3.3,0,6.7,0,10c0,1.7-0.4,2.1-2.1,2.1c-4.8,0-9.6,0-14.4,0c-1.6,0-2.1-0.5-2-2.1c0.2-2.5,2-4.8,4.5-5.6c0.3-0.1,0.7-0.2,1.1-0.3
		c0-1.7,0-3.4,0-5.3c-1.2,0-2.5,0-3.7,0c-1.4,0-1.9-0.5-1.9-1.9c0-4.7,0-9.4,0-14.1c0-0.4,0-0.8,0-1.2c-3.8-0.1-7.1-1.5-9.5-4.4
		c-2.4-2.9-3.5-6.2-2.7-10.2c-1.4-0.9-2.7-2.1-3.1-3.9c-0.2-1.4-0.2-2.7-0.2-4c0-0.8,0.6-1.2,1.4-1.2s1.4,0.4,1.5,1.2
		c0.1,0.6,0,1.1,0.1,1.7c0.1,2.3,1.7,3.9,3.9,3.9c2.1,0,3.7-1.6,3.8-3.9c0-0.5,0-1,0-1.5c0.1-0.9,0.6-1.5,1.5-1.4
		c0.9,0.1,1.3,0.6,1.4,1.4c0.2,2.9-0.4,5.4-2.7,7c0.2,1.2,0.4,2.2,0.6,3.2c0.3,2.1,2.1,3.6,4.2,3.5c0-0.8,0-1.6,0-2.4
		c0-1.4,0.5-1.9,1.9-1.9c3.7,0,7.4,0,11.1,0c0.4,0,0.7,0,1.2,0c0-1.2,0-2.3,0-3.5c-2.5,0-5,0.1-7.4,0c-3.4-0.1-6.3-2.6-6.8-5.9
		c-0.2-1.3-0.1-2.7-0.1-4c0-1.5,0-3,0-4.6c-1.2,0-2.3,0-3.4,0c-1.1,0-1.9-0.6-1.8-1.5c0-0.9,0.7-1.4,1.8-1.4c1.1,0,2.2,0,3.4,0
		c0-0.4,0.1-0.7,0.1-1.1c0-2.1,0-4,0-6.1c0-1.4,0.5-1.9,1.9-1.9c5.1,0,10.2,0,15.3,0c0.4,0,0.7,0,1.1,0c0.4-1.6,0.4-1.8-1-2.5
		c-2.6-1.2-4-4-3.4-6.8c0.6-2.8,3.1-4.8,5.9-4.9c2.9-0.1,5.4,1.9,6.1,4.7c0.7,2.7-0.6,5.7-3.2,6.8c-1.2,0.6-1.6,1.2-1.2,2.6
		c0.4,0,0.7,0,1.2,0c5,0,10.1,0,15.1,0c1.6,0,2.1,0.4,2.1,2.1c0,2.2,0,4.5,0,7c1.2,0,2.3,0,3.4,0c1.2,0,1.9,0.6,1.9,1.4
		c0,0.9-0.7,1.4-1.8,1.4c-1.1,0-2.2,0-3.4,0c0,1.6-0.1,3.1,0,4.5c0.6,7-2.3,10.6-10,10c-1.4-0.1-2.9,0-4.4,0c0,1.2,0,2.2,0,3.5
		c0.4,0,0.7,0.1,1.1,0.1c3.6,0,7.3,0,10.9,0c1.9,0,2.3,0.4,2.3,2.3c0,0.6,0,1.1,0,1.7c3.9,0.1,7.2,1.4,9.6,4.4
		c2.4,2.9,3.5,6.3,2.5,10.3c0.1,0.1,0.2,0.2,0.4,0.4c2.5,1.8,2.9,4.4,2.6,7.3c-0.1,0.7-0.6,1.2-1.4,1.2c-0.8,0-1.4-0.5-1.5-1.3
		c-0.1-0.6-0.1-1.2-0.1-1.8c-0.1-2.1-1.7-3.8-3.8-3.9s-3.8,1.7-3.9,3.7c0,0.6,0,1.1,0,1.6c0,0.9-0.5,1.5-1.4,1.6
		c-0.8,0.1-1.4-0.6-1.5-1.6c-0.2-3.2,0.6-5.2,3-7.2c-0.2-1.1-0.4-2.2-0.6-3.2C80.3,68.4,78.7,67.2,76.6,67.2z M73.6,81.8
		c0-8.2,0-16.1,0-24.2c-11.3,0-22.5,0-33.8,0c0,8.1,0,16.1,0,24.2C51.1,81.8,62.4,81.8,73.6,81.8z M39.8,42.7c11.3,0,22.5,0,33.8,0
		c0-5,0-10,0-15c-11.3,0-22.5,0-33.8,0C39.8,32.7,39.8,37.7,39.8,42.7z M40.1,45.8c0.9,1.7,2.2,2.5,3.9,2.5c1.9,0,3.8,0,5.7,0
		c6.5,0,12.9,0,19.5,0c2.1,0,3.5-0.8,4.1-2.5C62.2,45.8,51.2,45.8,40.1,45.8z M76.7,64.1c0.1,0.1,0.2,0.1,0.4,0.1
		c4,0.2,6.7,3.6,6.7,6.8c0,0.9,0.4,1.5,1.3,1.4c0.9-0.1,1.2-0.7,1.2-1.6c0.1-4.2-3.4-8.2-7.6-9c-0.6-0.1-1.3-0.1-2-0.2
		C76.7,62.6,76.7,63.3,76.7,64.1z M52.5,85c-2.4,0-4.6,0-7,0c0,1.7,0,3.3,0,4.9c2.4,0,4.6,0,7,0C52.5,88.3,52.5,86.7,52.5,85z
		 M61,90c2.4,0,4.6,0,6.8,0c0-1.7,0-3.3,0-4.9c-2.4,0-4.6,0-6.9,0c0,1.4,0,2.7,0,4C61,89.3,61,89.7,61,90z M36.8,62.1
		c-0.2-0.1-0.4-0.1-0.6-0.1c-3.7-0.2-6.3-3-6.6-6.7c-0.1-1.1-0.6-1.6-1.4-1.5c-1,0.1-1.1,0.8-1.1,1.6c0.1,2.6,1.1,4.7,2.9,6.4
		c1.9,1.7,4,2.6,6.7,2.6C36.8,63.7,36.8,63,36.8,62.1z M56.7,13.5c-1.8,0-3.2,1.5-3.2,3.3c0.1,1.7,1.5,3.2,3.3,3.1
		c1.7-0.1,3.2-1.6,3.1-3.3C59.9,14.9,58.5,13.5,56.7,13.5z M52.3,93.1c-3.2,0-6.4-0.1-9.6,0.1c-1.2,0.1-2.1,0.9-2.7,2.1
		c4.2,0,8.2,0,12.2,0C52.3,94.4,52.3,93.8,52.3,93.1z M61,95.1c4.1,0,8.2,0,12.3,0C72.5,93.7,71.4,93,70,93c-1.4-0.1-2.7,0-4.2,0
		c-1.6,0-3.2,0-4.8,0C61,93.8,61,94.4,61,95.1z M54.2,51.2c0,1.2,0,2.3,0,3.4c1.7,0,3.4,0,5,0c0-1.2,0-2.3,0-3.4
		C57.6,51.2,55.9,51.2,54.2,51.2z"/>
	<path class="st0" d="M42,69.7c0-4.2,3.5-7.7,7.7-7.7s7.7,3.5,7.7,7.7c-0.1,4.2-3.5,7.6-7.7,7.6C45.5,77.4,42,74,42,69.7z
		 M51.5,65.4c-2.1-1.1-4.7-0.1-5.9,2.1c-1.2,2.2-0.4,5,1.7,6.3c2.2,1.4,5.1,0.7,6.5-1.4c1.3-2,0.9-4.7-0.7-5.9
		c-0.1,0.5-0.1,1.1-0.3,1.5c-0.5,0.9-1.1,1.7-1.7,2.6c-0.6,0.7-1.2,0.9-2.1,0.4c-0.7-0.4-0.9-1.2-0.4-2.1c0.4-0.7,0.9-1.6,1.5-2.2
		C50.4,66.2,51,65.8,51.5,65.4z"/>
	<path class="st0" d="M66.3,63.6c1.1,0,2.3,0,3.4,0c1,0,1.6,0.6,1.6,1.4c0,0.8-0.6,1.4-1.6,1.5c-2.3,0-4.6,0-7,0
		c-1.1,0-1.6-0.6-1.6-1.4c0-0.9,0.6-1.4,1.7-1.4C64.1,63.5,65.2,63.5,66.3,63.6z"/>
	<path class="st0" d="M66.3,76c-1.1,0-2.3,0-3.4,0c-0.9,0-1.5-0.4-1.6-1.4c-0.1-0.9,0.6-1.5,1.5-1.6c2.4-0.1,4.7-0.1,7,0
		c1,0,1.6,0.7,1.6,1.5c0,0.8-0.7,1.4-1.7,1.4C68.6,76,67.5,76,66.3,76z"/>
	<path class="st0" d="M66.3,68.2c1.1,0,2.3,0,3.4,0c1,0,1.6,0.6,1.7,1.4c0,0.9-0.6,1.5-1.6,1.5c-2.3,0.1-4.6,0-7,0
		c-1,0-1.6-0.6-1.6-1.4c0-0.9,0.6-1.4,1.6-1.5C64,68.2,65.2,68.3,66.3,68.2L66.3,68.2z"/>
	<path class="st0" d="M42.9,35.2c0-3.2,2.6-5.8,5.9-5.7c3.2,0.1,5.7,2.6,5.7,5.8S51.8,41,48.7,41C45.4,41,42.8,38.4,42.9,35.2z
		 M50,32.8c0.2,1.2,0.1,2.4-0.9,2.9c-0.8,0.5-1.9,0.6-2.9,0.8c0.4,0.9,1.4,1.6,2.5,1.6c1.2-0.1,2.3-0.9,2.7-2.1
		C51.6,34.7,51.2,33.7,50,32.8z"/>
	<path class="st0" d="M65,29.5c3.2,0.1,5.7,2.7,5.7,5.9S67.9,41,64.7,41c-3.3-0.1-5.7-2.7-5.6-6C59.2,31.9,61.9,29.4,65,29.5z
		 M64.1,37.8c0.4-0.9,0.5-1.9,1.1-2.6c0.6-0.6,1.5-0.8,2.3-1.2c-0.5-1.2-1.6-2-3-1.7c-1.3,0.2-2.4,1.4-2.4,2.7
		C62.1,36.5,63,37.5,64.1,37.8z"/>
</g>
</svg>
